<svg xmlns="http://www.w3.org/2000/svg" xmlns:xlink="http://www.w3.org/1999/xlink" width="200" zoomAndPan="magnify" viewBox="0 0 150 74.999997" height="100" preserveAspectRatio="xMidYMid meet" version="1.0"><defs><clipPath id="df64fc2046"><path d="M 13.394531 1.613281 L 136 1.613281 L 136 73.613281 L 13.394531 73.613281 Z M 13.394531 1.613281 " clip-rule="nonzero"/></clipPath></defs><g clip-path="url(#df64fc2046)"><path fill="#664387" d="M 25.800781 1.613281 C 19.238281 1.613281 13.902344 6.980469 13.902344 13.574219 L 13.902344 34.925781 C 13.902344 41.523438 19.238281 46.886719 25.800781 46.886719 L 73.484375 46.886719 C 74.285156 46.886719 74.9375 46.234375 74.9375 45.425781 C 74.9375 44.621094 74.285156 43.964844 73.484375 43.964844 L 25.800781 43.964844 C 20.839844 43.964844 16.808594 39.910156 16.808594 34.925781 L 16.808594 13.574219 C 16.808594 8.589844 20.839844 4.535156 25.800781 4.535156 L 115.625 4.535156 C 116.429688 4.535156 117.078125 3.878906 117.078125 3.074219 C 117.078125 2.269531 116.429688 1.613281 115.625 1.613281 Z M 100.921875 14.773438 C 100.785156 14.792969 100.644531 14.828125 100.515625 14.886719 C 99.984375 15.117188 99.640625 15.644531 99.640625 16.222656 L 99.640625 62.304688 C 99.640625 62.890625 99.984375 63.417969 100.515625 63.648438 C 101.050781 63.878906 101.671875 63.765625 102.09375 63.363281 L 111.980469 53.914062 L 120.042969 72.664062 C 120.199219 73.019531 120.492188 73.300781 120.855469 73.445312 C 121.023438 73.507812 121.203125 73.542969 121.378906 73.542969 C 121.585938 73.542969 121.789062 73.496094 121.980469 73.410156 L 128.09375 70.617188 C 128.824219 70.285156 129.148438 69.421875 128.816406 68.6875 L 120.492188 50.179688 L 134.566406 48.960938 C 135.136719 48.910156 135.625 48.527344 135.8125 47.980469 C 136.003906 47.433594 135.851562 46.828125 135.433594 46.433594 L 102.082031 15.15625 C 101.765625 14.859375 101.339844 14.726562 100.921875 14.773438 Z M 77.964844 14.9375 L 71.613281 31.1875 L 74.035156 31.1875 L 80.40625 14.9375 Z M 86.636719 14.9375 L 80.285156 31.1875 L 82.707031 31.1875 L 89.074219 14.9375 Z M 29.886719 16.199219 L 29.886719 29.617188 L 32.214844 29.617188 L 32.214844 24.785156 C 32.214844 23.367188 33.167969 22.199219 34.542969 22.199219 C 35.78125 22.199219 36.675781 22.929688 36.675781 24.652344 L 36.675781 29.617188 L 39.003906 29.617188 L 39.003906 24.632812 C 39.003906 21.855469 37.820312 20.035156 35.152344 20.035156 C 34.085938 20.035156 33.054688 20.359375 32.214844 21.453125 L 32.214844 16.199219 Z M 44.242188 17.507812 L 41.914062 17.753906 L 41.914062 20.191406 L 40.160156 20.191406 L 40.160156 22.203125 L 41.914062 22.203125 L 41.914062 26.285156 C 41.914062 28.640625 43.25 29.808594 45.289062 29.734375 C 45.996094 29.714844 46.550781 29.597656 47.21875 29.332031 L 46.566406 27.335938 C 46.222656 27.507812 45.804688 27.625 45.441406 27.625 C 44.71875 27.625 44.222656 27.183594 44.222656 26.285156 L 44.222656 22.203125 L 46.835938 22.203125 L 46.835938 20.191406 L 44.242188 20.191406 Z M 51.847656 17.507812 L 49.523438 17.753906 L 49.523438 20.191406 L 47.769531 20.191406 L 47.769531 22.203125 L 49.523438 22.203125 L 49.523438 26.285156 C 49.523438 28.640625 50.855469 29.808594 52.898438 29.734375 C 53.601562 29.714844 54.15625 29.597656 54.824219 29.332031 L 54.171875 27.335938 C 53.832031 27.507812 53.414062 27.625 53.050781 27.625 C 52.324219 27.625 51.828125 27.183594 51.828125 26.285156 L 51.828125 22.203125 L 54.441406 22.203125 L 54.441406 20.191406 L 51.847656 20.191406 Z M 61.554688 19.957031 C 60.480469 19.960938 59.222656 20.417969 58.5 21.472656 L 58.347656 20.167969 L 56.175781 20.167969 L 56.175781 33.5625 L 58.503906 33.5625 L 58.503906 28.503906 C 59.167969 29.539062 60.640625 29.84375 61.628906 29.84375 C 64.640625 29.84375 66.378906 27.660156 66.378906 24.902344 C 66.378906 22.121094 64.449219 19.957031 61.554688 19.957031 Z M 103.046875 20.054688 L 131.058594 46.332031 L 118.195312 47.445312 C 117.726562 47.488281 117.308594 47.75 117.070312 48.160156 C 116.832031 48.570312 116.804688 49.066406 117 49.5 L 125.570312 68.558594 L 122.125 70.136719 L 113.820312 50.832031 C 113.632812 50.394531 113.246094 50.078125 112.777344 49.984375 C 112.683594 49.964844 112.582031 49.953125 112.484375 49.953125 C 112.117188 49.953125 111.757812 50.09375 111.484375 50.351562 L 102.546875 58.898438 L 102.546875 22.515625 L 106.035156 30.382812 C 106.15625 30.65625 106.421875 30.816406 106.699219 30.816406 C 106.796875 30.816406 106.898438 30.796875 106.996094 30.753906 C 107.363281 30.589844 107.527344 30.15625 107.363281 29.789062 Z M 69.539062 21.5 C 68.859375 21.5 68.183594 21.953125 68.183594 22.851562 C 68.183594 24.632812 70.890625 24.632812 70.890625 22.851562 C 70.890625 21.953125 70.214844 21.5 69.539062 21.5 Z M 61.378906 22.21875 C 63.058594 22.21875 64.046875 23.425781 64.046875 24.902344 C 64.046875 26.375 62.960938 27.585938 61.378906 27.585938 C 59.796875 27.585938 58.710938 26.375 58.710938 24.902344 C 58.710938 23.425781 59.703125 22.21875 61.378906 22.21875 Z M 69.539062 27.058594 C 68.859375 27.058594 68.183594 27.507812 68.183594 28.410156 C 68.183594 30.191406 70.890625 30.191406 70.890625 28.410156 C 70.890625 27.507812 70.214844 27.058594 69.539062 27.058594 Z M 107.527344 31.847656 C 107.433594 31.851562 107.339844 31.871094 107.246094 31.910156 C 106.878906 32.070312 106.707031 32.5 106.863281 32.867188 L 107.148438 33.53125 C 107.265625 33.808594 107.535156 33.972656 107.816406 33.972656 C 107.914062 33.972656 108.011719 33.957031 108.105469 33.914062 C 108.472656 33.753906 108.640625 33.328125 108.484375 32.960938 L 108.199219 32.292969 C 108.082031 32.011719 107.808594 31.847656 107.527344 31.847656 Z M 107.527344 31.847656 " fill-opacity="1" fill-rule="nonzero"/></g></svg>