<svg xmlns="http://www.w3.org/2000/svg" xmlns:xlink="http://www.w3.org/1999/xlink" width="100" zoomAndPan="magnify" viewBox="0 0 75 74.999997" height="100" preserveAspectRatio="xMidYMid meet" version="1.0"><defs><clipPath id="fa45b33e69"><path d="M 1.46875 1.46875 L 73.46875 1.46875 L 73.46875 73.46875 L 1.46875 73.46875 Z M 1.46875 1.46875 " clip-rule="nonzero"/></clipPath></defs><g clip-path="url(#fa45b33e69)"><path fill="#ffffff" d="M 37.46875 73.46875 C 57.351562 73.46875 73.46875 57.351562 73.46875 37.46875 C 73.46875 17.585938 57.351562 1.46875 37.46875 1.46875 C 17.585938 1.46875 1.46875 17.585938 1.46875 37.46875 C 1.46875 57.351562 17.585938 73.46875 37.46875 73.46875 Z M 21.117188 22.152344 L 37.46875 35.234375 L 53.820312 22.152344 L 54.292969 21.761719 L 20.648438 21.761719 Z M 56.042969 24.847656 L 56.667969 24.324219 L 56.667969 51.433594 C 56.667969 52.398438 55.886719 53.179688 54.925781 53.179688 L 20.015625 53.179688 C 19.050781 53.179688 18.269531 52.398438 18.269531 51.433594 L 18.269531 24.324219 L 18.898438 24.847656 L 18.925781 24.867188 L 36.378906 38.832031 C 37.015625 39.34375 37.921875 39.34375 38.558594 38.832031 L 56.015625 24.867188 Z M 56.042969 24.847656 " fill-opacity="1" fill-rule="evenodd"/></g></svg>