<svg xmlns="http://www.w3.org/2000/svg" xmlns:xlink="http://www.w3.org/1999/xlink" width="100" zoomAndPan="magnify" viewBox="0 0 75 74.999997" height="100" preserveAspectRatio="xMidYMid meet" version="1.0"><defs><clipPath id="cd19501bf5"><path d="M 2.117188 2.117188 L 72.617188 2.117188 L 72.617188 72.617188 L 2.117188 72.617188 Z M 2.117188 2.117188 " clip-rule="nonzero"/></clipPath></defs><g clip-path="url(#cd19501bf5)"><path fill="#ffffff" d="M 37.367188 2.117188 C 17.898438 2.117188 2.117188 17.898438 2.117188 37.367188 C 2.117188 56.835938 17.898438 72.617188 37.367188 72.617188 C 56.835938 72.617188 72.617188 56.835938 72.617188 37.367188 C 72.617188 17.898438 56.835938 2.117188 37.367188 2.117188 Z M 26.730469 54.648438 L 19.320312 54.648438 L 19.320312 31.171875 L 26.730469 31.171875 Z M 22.832031 28.234375 L 22.78125 28.234375 C 20.097656 28.234375 18.359375 26.441406 18.359375 24.164062 C 18.359375 21.886719 20.152344 20.085938 22.886719 20.085938 C 25.621094 20.085938 27.300781 21.839844 27.355469 24.160156 C 27.355469 26.433594 25.621094 28.234375 22.835938 28.234375 Z M 56.375 54.648438 L 47.96875 54.648438 L 47.96875 42.496094 C 47.96875 39.316406 46.65625 37.144531 43.765625 37.144531 C 41.554688 37.144531 40.324219 38.613281 39.753906 40.019531 C 39.539062 40.527344 39.574219 41.234375 39.574219 41.9375 L 39.574219 54.644531 L 31.25 54.644531 C 31.25 54.644531 31.355469 33.121094 31.25 31.167969 L 39.574219 31.167969 L 39.574219 34.851562 C 40.0625 33.238281 42.726562 30.941406 46.96875 30.941406 C 52.234375 30.941406 56.375 34.316406 56.375 41.589844 Z M 56.375 54.648438 " fill-opacity="1" fill-rule="nonzero"/></g></svg>