<svg xmlns="http://www.w3.org/2000/svg" xmlns:xlink="http://www.w3.org/1999/xlink" width="100" zoomAndPan="magnify" viewBox="0 0 75 74.999997" height="100" preserveAspectRatio="xMidYMid meet" version="1.0"><defs><clipPath id="22268b3037"><path d="M 1.976562 1.976562 L 73.226562 1.976562 L 73.226562 73.226562 L 1.976562 73.226562 Z M 1.976562 1.976562 " clip-rule="nonzero"/></clipPath></defs><path fill="#ffffff" d="M 37.601562 29.707031 C 33.253906 29.707031 29.707031 33.253906 29.707031 37.601562 C 29.707031 41.949219 33.253906 45.496094 37.601562 45.496094 C 41.949219 45.496094 45.496094 41.949219 45.496094 37.601562 C 45.496094 33.253906 41.949219 29.707031 37.601562 29.707031 Z M 37.601562 29.707031 " fill-opacity="1" fill-rule="nonzero"/><path fill="#ffffff" d="M 48.210938 18.230469 L 26.992188 18.230469 C 22.179688 18.230469 18.230469 22.148438 18.230469 26.992188 L 18.230469 48.210938 C 18.230469 53.023438 22.148438 56.972656 26.992188 56.972656 L 48.210938 56.972656 C 53.023438 56.972656 56.972656 53.054688 56.972656 48.210938 L 56.972656 26.992188 C 56.941406 22.148438 53.023438 18.230469 48.210938 18.230469 Z M 37.601562 49.476562 C 31.03125 49.476562 25.695312 44.140625 25.695312 37.570312 C 25.695312 31 31.03125 25.664062 37.601562 25.664062 C 44.171875 25.664062 49.507812 31 49.507812 37.570312 C 49.476562 44.140625 44.140625 49.476562 37.601562 49.476562 Z M 50.339844 27.667969 C 48.765625 27.667969 47.472656 26.375 47.472656 24.800781 C 47.472656 23.226562 48.765625 21.933594 50.339844 21.933594 C 51.914062 21.933594 53.207031 23.226562 53.207031 24.800781 C 53.207031 26.40625 51.945312 27.667969 50.339844 27.667969 Z M 50.339844 27.667969 " fill-opacity="1" fill-rule="nonzero"/><g clip-path="url(#22268b3037)"><path fill="#ffffff" d="M 37.601562 1.976562 C 17.921875 1.976562 1.976562 17.921875 1.976562 37.601562 C 1.976562 57.28125 17.921875 73.226562 37.601562 73.226562 C 57.28125 73.226562 73.226562 57.28125 73.226562 37.601562 C 73.195312 17.921875 57.25 1.976562 37.601562 1.976562 Z M 60.949219 48.210938 C 60.949219 55.246094 55.214844 60.980469 48.179688 60.980469 L 26.992188 60.980469 C 19.957031 60.980469 14.222656 55.246094 14.222656 48.210938 L 14.222656 26.992188 C 14.222656 19.957031 19.957031 14.222656 26.992188 14.222656 L 48.210938 14.222656 C 55.246094 14.222656 60.980469 19.957031 60.980469 26.992188 L 60.980469 48.210938 Z M 60.949219 48.210938 " fill-opacity="1" fill-rule="nonzero"/></g></svg>