<svg xmlns="http://www.w3.org/2000/svg" xmlns:xlink="http://www.w3.org/1999/xlink" width="100" zoomAndPan="magnify" viewBox="0 0 75 74.999997" height="100" preserveAspectRatio="xMidYMid meet" version="1.0"><defs><clipPath id="ce87cc3802"><path d="M 2.089844 2.089844 L 72.589844 2.089844 L 72.589844 72.589844 L 2.089844 72.589844 Z M 2.089844 2.089844 " clip-rule="nonzero"/></clipPath></defs><g clip-path="url(#ce87cc3802)"><path fill="#ffffff" d="M 37.339844 2.089844 C 17.871094 2.089844 2.089844 17.871094 2.089844 37.339844 C 2.089844 56.808594 17.871094 72.589844 37.339844 72.589844 C 56.808594 72.589844 72.589844 56.808594 72.589844 37.339844 C 72.589844 17.871094 56.808594 2.089844 37.339844 2.089844 Z M 44.070312 58.117188 C 42.992188 58.324219 42.609375 57.660156 42.609375 57.089844 C 42.609375 56.386719 42.636719 54.089844 42.636719 51.234375 C 42.636719 49.242188 41.957031 47.941406 41.195312 47.28125 C 45.929688 46.753906 50.902344 44.949219 50.902344 36.75 C 50.902344 34.421875 50.082031 32.511719 48.71875 31.023438 C 48.9375 30.484375 49.664062 28.3125 48.507812 25.375 C 48.507812 25.375 46.726562 24.800781 42.664062 27.5625 C 40.964844 27.089844 39.148438 26.855469 37.34375 26.84375 C 35.535156 26.855469 33.714844 27.089844 32.019531 27.5625 C 27.957031 24.804688 26.175781 25.375 26.175781 25.375 C 25.019531 28.316406 25.75 30.484375 25.96875 31.023438 C 24.605469 32.511719 23.777344 34.421875 23.777344 36.75 C 23.777344 44.929688 28.742188 46.757812 33.460938 47.296875 C 32.855469 47.828125 32.304688 48.769531 32.113281 50.148438 C 30.898438 50.695312 27.820312 51.636719 25.925781 48.375 C 25.925781 48.375 24.804688 46.328125 22.671875 46.175781 C 22.671875 46.175781 20.59375 46.148438 22.527344 47.472656 C 22.527344 47.472656 23.917969 48.128906 24.886719 50.597656 C 24.886719 50.597656 26.132812 54.75 32.046875 53.457031 C 32.058594 55.238281 32.074219 56.582031 32.074219 57.089844 C 32.074219 57.652344 31.6875 58.3125 30.625 58.117188 C 22.175781 55.296875 16.082031 47.296875 16.082031 37.867188 C 16.082031 26.078125 25.601562 16.523438 37.34375 16.523438 C 49.085938 16.523438 58.601562 26.082031 58.601562 37.867188 C 58.601562 47.292969 52.519531 55.289062 44.074219 58.117188 Z M 44.070312 58.117188 " fill-opacity="1" fill-rule="nonzero"/></g></svg>