<svg xmlns="http://www.w3.org/2000/svg" xmlns:xlink="http://www.w3.org/1999/xlink" width="100" zoomAndPan="magnify" viewBox="0 0 75 74.999997" height="100" preserveAspectRatio="xMidYMid meet" version="1.0"><defs><clipPath id="a7ee5644e9"><path d="M 2.074219 2.074219 L 72.574219 2.074219 L 72.574219 72.574219 L 2.074219 72.574219 Z M 2.074219 2.074219 " clip-rule="nonzero"/></clipPath></defs><g clip-path="url(#a7ee5644e9)"><path fill="#ffffff" d="M 49.566406 42.363281 C 49.695312 42.59375 49.695312 43.664062 49.25 44.917969 C 48.808594 46.171875 47.039062 47.21875 45.632812 47.519531 C 44.671875 47.722656 43.414062 47.890625 39.179688 46.136719 C 33.765625 43.894531 30.277344 38.386719 30.007812 38.03125 C 29.746094 37.671875 27.820312 35.117188 27.820312 32.472656 C 27.820312 29.828125 29.160156 28.539062 29.703125 27.988281 C 30.148438 27.535156 30.886719 27.328125 31.589844 27.328125 C 31.820312 27.328125 32.023438 27.339844 32.207031 27.351562 C 32.75 27.371094 33.019531 27.402344 33.378906 28.257812 C 33.820312 29.332031 34.902344 31.976562 35.035156 32.246094 C 35.164062 32.519531 35.296875 32.882812 35.113281 33.242188 C 34.9375 33.609375 34.789062 33.777344 34.515625 34.089844 C 34.246094 34.402344 33.984375 34.644531 33.714844 34.976562 C 33.464844 35.269531 33.183594 35.585938 33.5 36.128906 C 33.816406 36.660156 34.898438 38.425781 36.492188 39.84375 C 38.550781 41.671875 40.214844 42.261719 40.8125 42.507812 C 41.257812 42.691406 41.789062 42.648438 42.113281 42.304688 C 42.523438 41.859375 43.03125 41.121094 43.554688 40.394531 C 43.921875 39.875 44.390625 39.8125 44.875 39.996094 C 45.375 40.167969 48.007812 41.46875 48.550781 41.738281 C 49.09375 42.011719 49.449219 42.140625 49.578125 42.367188 Z M 72.574219 37.324219 C 72.574219 56.792969 56.792969 72.574219 37.324219 72.574219 C 17.855469 72.574219 2.074219 56.792969 2.074219 37.324219 C 2.074219 17.855469 17.855469 2.074219 37.324219 2.074219 C 56.792969 2.074219 72.574219 17.855469 72.574219 37.324219 Z M 56.949219 37.324219 C 56.949219 27.164062 48.6875 18.898438 38.527344 18.898438 L 38.515625 18.898438 C 28.359375 18.898438 20.09375 27.164062 20.09375 37.324219 C 20.09375 41.355469 21.394531 45.09375 23.601562 48.125 L 21.308594 54.972656 L 28.390625 52.707031 C 31.300781 54.636719 34.78125 55.753906 38.527344 55.753906 C 48.6875 55.753906 56.949219 47.488281 56.949219 37.324219 Z M 56.949219 37.324219 " fill-opacity="1" fill-rule="nonzero"/></g></svg>